<?xml version="1.0" encoding="UTF-8" standalone="no"?>
<!-- Created with Inkscape (http://www.inkscape.org/) -->

<svg
   xmlns:dc="http://purl.org/dc/elements/1.1/"
   xmlns:cc="http://creativecommons.org/ns#"
   xmlns:rdf="http://www.w3.org/1999/02/22-rdf-syntax-ns#"
   xmlns:svg="http://www.w3.org/2000/svg"
   xmlns="http://www.w3.org/2000/svg"
   xmlns:sodipodi="http://sodipodi.sourceforge.net/DTD/sodipodi-0.dtd"
   xmlns:inkscape="http://www.inkscape.org/namespaces/inkscape"
   width="210mm"
   height="297mm"
   viewBox="0 0 744.09448819 1052.3622047"
   id="svg2"
   version="1.1"
   inkscape:version="0.91 r13725"
   sodipodi:docname="sweble.svg"
   inkscape:export-filename="/home/dohrn/_ICONS/sweble/sweble.png"
   inkscape:export-xdpi="258.75"
   inkscape:export-ydpi="258.75">
  <defs
     id="defs4" />
  <sodipodi:namedview
     id="base"
     pagecolor="#ffffff"
     bordercolor="#666666"
     borderopacity="1.0"
     inkscape:pageopacity="0.0"
     inkscape:pageshadow="2"
     inkscape:zoom="5.6"
     inkscape:cx="64.266024"
     inkscape:cy="15.599024"
     inkscape:document-units="px"
     inkscape:current-layer="layer1"
     showgrid="false"
     showguides="true"
     inkscape:guide-bbox="true"
     inkscape:snap-page="true"
     inkscape:snap-text-baseline="false"
     inkscape:snap-center="true"
     inkscape:snap-object-midpoints="true"
     inkscape:snap-others="true"
     showborder="false"
     inkscape:snap-midpoints="true"
     inkscape:snap-smooth-nodes="true"
     inkscape:object-nodes="true"
     inkscape:snap-intersection-paths="true"
     inkscape:object-paths="true"
     inkscape:snap-bbox="true"
     inkscape:bbox-paths="true"
     inkscape:bbox-nodes="true"
     inkscape:snap-bbox-midpoints="true"
     inkscape:snap-bbox-edge-midpoints="true"
     inkscape:window-width="1920"
     inkscape:window-height="1136"
     inkscape:window-x="1916"
     inkscape:window-y="0"
     inkscape:window-maximized="1">
    <sodipodi:guide
       position="0,-3.0000001"
       orientation="0,1"
       id="guide3376"
       inkscape:label=""
       inkscape:color="rgb(0,0,255)" />
    <sodipodi:guide
       position="0,29.800001"
       orientation="0,1"
       id="guide3393"
       inkscape:label=""
       inkscape:color="rgb(0,0,255)" />
  </sodipodi:namedview>
  <metadata
     id="metadata7">
    <rdf:RDF>
      <cc:Work
         rdf:about="">
        <dc:format>image/svg+xml</dc:format>
        <dc:type
           rdf:resource="http://purl.org/dc/dcmitype/StillImage" />
        <dc:title></dc:title>
      </cc:Work>
    </rdf:RDF>
  </metadata>
  <g
     inkscape:label="Ebene 1"
     inkscape:groupmode="layer"
     id="layer1">
    <rect
       style="fill:none;fill-opacity:1;stroke:none;stroke-width:0;stroke-miterlimit:4;stroke-dasharray:none"
       id="rect3414"
       width="160"
       height="160"
       x="-5.5431252"
       y="958.96222" />
    <g
       style="font-style:normal;font-variant:normal;font-weight:600;font-stretch:normal;font-size:40px;line-height:125%;font-family:'Linux Libertine O';-inkscape-font-specification:'Linux Libertine O, Semi-Bold';text-align:start;letter-spacing:0px;word-spacing:0px;writing-mode:lr-tb;text-anchor:start;fill:#dd4814;fill-opacity:1;stroke:none;stroke-width:1px;stroke-linecap:butt;stroke-linejoin:miter;stroke-opacity:1"
       id="text3336"
       transform="translate(-353.14574,425.59149)">
      <path
         d="m 367.06574,601.05071 c -2.2,-0.32 -2.44,-1.08 -6.16,-1.08 -3.44,0 -7.44,2.12 -7.44,6.92 0,4.68 5.16,7.16 8.04,8.28 2.44,0.96 3.64,3 3.64,5.32 0,2.96 -1.52,4.56 -4.56,4.56 -2.68,0 -5.04,-2.24 -5.84,-5.88 l -1.6,0.12 c 0.4,3.04 0.68,4.96 0.76,7 0.68,0 1.04,-0.2 1.84,-0.2 0.96,0 1.76,0.6 5.68,0.6 4.56,0 8,-2.44 8,-7.76 0,-4.84 -3.96,-6.96 -7.32,-8.16 -1.68,-0.6 -4.84,-2.6 -4.84,-5.16 0,-2.24 0.96,-4.08 3.6,-4.08 3.4,0 4.72,3.16 5.44,5.8 l 1.6,-0.2 c -0.36,-1.96 -0.68,-3.96 -0.84,-6.08 z"
         id="path3345"
         inkscape:connector-curvature="0" />
      <path
         d="m 383.25011,626.77071 c 1,0 1.88,-0.64 2.24,-1.8 l 4.44,-13.48 c 0.04,-0.2 0.12,-0.4 0.16,-0.4 0.08,0 0.12,0.16 0.24,0.52 l 4.36,13.12 c 0.4,1.28 0.92,2.04 2.6,2.04 1.12,0 1.76,-0.64 2.28,-2.24 l 6.84,-20.64 c 0.56,-1.64 1,-2.12 2.56,-2.12 l 0.44,0 c 0.04,0 0.48,0 0.48,-0.32 l 0,-0.96 -0.08,-0.04 c 0,0 -2.08,0.04 -3.36,0.04 -1.68,0 -4.92,-0.04 -4.92,-0.04 l -0.12,0.08 0,0.96 c 0,0.12 0.16,0.28 0.32,0.28 1.92,0 2.8,0.32 2.32,1.76 l -4.72,14.16 -1.04,3.04 -0.84,-2.72 -4.56,-13.88 c -0.76,-2.28 0.6,-2.36 2.04,-2.36 0.12,0 0.32,-0.08 0.32,-0.28 l 0,-0.96 -0.08,-0.08 c 0,0 -4.84,0.04 -6.8,0.04 -1.6,0 -3.84,-0.04 -3.84,-0.04 l -0.08,0.08 0,0.92 c 0,0.2 0.2,0.32 0.48,0.32 l 0.12,0 c 1.56,0 2.28,0.56 2.6,1.64 l 0.84,2.56 c 0.16,0.4 0.2,0.76 0.2,1.12 0,0.52 -0.12,1.04 -0.28,1.52 l -2.96,9.04 -0.92,2.8 -0.92,-2.88 -4.68,-14.16 c -0.52,-1.48 0.2,-1.64 1.76,-1.64 0.2,0 0.36,-0.12 0.36,-0.36 l 0,-0.88 -0.12,-0.08 c 0,0 -3.6,0.04 -5.64,0.04 -1.52,0 -4.44,-0.04 -4.44,-0.04 l -0.08,0.08 0,0.92 c 0,0.2 0.2,0.32 0.48,0.32 l 0.52,0 c 1.12,0 1.84,1.04 2.2,2.04 l 6.96,21.08 c 0.44,1.2 1,1.88 2.32,1.88 z"
         id="path3347"
         inkscape:connector-curvature="0" />
      <path
         d="m 412.70949,626.29071 19.52,0 c 0.28,-2.16 0.68,-4.64 1.08,-6.76 l -1.72,-0.4 c -0.68,2.96 -2.12,5.32 -4.32,5.32 l -6.12,0 c -0.36,0 -0.56,-0.24 -0.56,-1.16 l 0,-9.92 4.52,0 c 1,0 1.16,1.2 1.4,2.84 0,0.16 0.24,0.4 0.64,0.4 l 0.84,0 0.24,-0.36 c -0.08,-0.68 -0.28,-2.28 -0.28,-3.72 0,-1.48 0.2,-3.08 0.28,-3.72 l -0.24,-0.4 -0.84,0 c -0.4,0 -0.64,0.28 -0.64,0.44 -0.24,1.6 -0.4,2.84 -1.4,2.84 l -4.52,0 0,-8.24 c 0,-0.84 0.2,-1.16 0.56,-1.16 l 5.2,0 c 2.68,0 3.68,2.96 4.24,5 l 1.6,-0.36 c -0.4,-2.04 -0.68,-4.16 -0.84,-6.48 l -18.64,0 -0.12,0.08 0,0.92 c 0,0.2 0.16,0.32 0.32,0.32 l 0.56,0 c 1.6,0 2.2,0.48 2.2,1.76 l 0,19.68 c 0,1.28 -0.6,1.76 -2.2,1.76 l -0.56,0 c -0.16,0 -0.32,0.12 -0.32,0.36 l 0,0.88 0.12,0.08 z"
         id="path3349"
         inkscape:connector-curvature="0" />
      <path
         d="m 442.96949,603.81071 c 0,-1.16 0.2,-1.72 2.8,-1.72 1.84,0 4.48,0.72 4.48,4.64 0,3.2 -2.2,4.52 -5.04,4.52 l -2.24,0 0,-7.44 z m 0,9.12 2.84,0 c 4.12,0 6.32,2.44 6.32,5.88 0,2.4 -1.24,5.88 -6.52,5.88 -2.4,0 -2.64,-0.6 -2.64,-1.76 l 0,-10 z m -7.96,12.52 0,0.8 0.04,0.04 11.32,0 c 8.2,0 10.84,-3.56 10.84,-7.04 0,-3.52 -1.76,-6.2 -6,-7.32 l 0,-0.08 c 2.16,-0.96 3.84,-3.16 3.84,-5.2 0,-2.76 -1.52,-6.24 -9.56,-6.24 -2,0 -4,0.08 -5.2,0.08 -1.2,0 -5.2,-0.08 -5.2,-0.08 l -0.08,0.08 0,0.88 c 0,0.28 0.12,0.4 0.56,0.4 l 1.32,0 c 0.96,0 1.2,0.44 1.2,1.64 l 0,19.92 c 0,1.28 -0.28,1.64 -1.2,1.64 l -1.16,0 c -0.6,0 -0.72,0.2 -0.72,0.48 z"
         id="path3351"
         inkscape:connector-curvature="0" />
      <path
         d="m 462.89511,603.53071 0,19.88 c 0,1.24 -0.24,1.6 -1.2,1.6 l -1.28,0 c -0.48,0 -0.64,0.2 -0.64,0.48 l 0,0.8 0.16,0.08 c 0,0 3.12,-0.08 4.72,-0.08 l 13.76,0 c 0.08,-2.24 0.52,-4.76 0.96,-6.92 l -1.56,-0.32 c -0.64,2.44 -2.08,5.4 -5.24,5.4 l -3.44,0 c -0.84,0 -1.36,-0.64 -1.36,-1.84 l 0,-19.08 c 0,-1.12 0.52,-1.76 2.16,-1.76 l 0.6,0 c 0.16,0 0.28,-0.12 0.28,-0.32 l 0,-0.96 -0.08,-0.08 c 0,0 -4,0.08 -5.4,0.08 -1.56,0 -5.48,-0.08 -5.48,-0.08 l -0.08,0.08 0,0.96 c 0,0.2 0.16,0.32 0.36,0.32 l 0.56,0 c 1.56,0 2.2,0.48 2.2,1.76 z"
         id="path3353"
         inkscape:connector-curvature="0" />
      <path
         d="m 481.45949,626.29071 19.52,0 c 0.28,-2.16 0.68,-4.64 1.08,-6.76 l -1.72,-0.4 c -0.68,2.96 -2.12,5.32 -4.32,5.32 l -6.12,0 c -0.36,0 -0.56,-0.24 -0.56,-1.16 l 0,-9.92 4.52,0 c 1,0 1.16,1.2 1.4,2.84 0,0.16 0.24,0.4 0.64,0.4 l 0.84,0 0.24,-0.36 c -0.08,-0.68 -0.28,-2.28 -0.28,-3.72 0,-1.48 0.2,-3.08 0.28,-3.72 l -0.24,-0.4 -0.84,0 c -0.4,0 -0.64,0.28 -0.64,0.44 -0.24,1.6 -0.4,2.84 -1.4,2.84 l -4.52,0 0,-8.24 c 0,-0.84 0.2,-1.16 0.56,-1.16 l 5.2,0 c 2.68,0 3.68,2.96 4.24,5 l 1.6,-0.36 c -0.4,-2.04 -0.68,-4.16 -0.84,-6.48 l -18.64,0 -0.12,0.08 0,0.92 c 0,0.2 0.16,0.32 0.32,0.32 l 0.56,0 c 1.6,0 2.2,0.48 2.2,1.76 l 0,19.68 c 0,1.28 -0.6,1.76 -2.2,1.76 l -0.56,0 c -0.16,0 -0.32,0.12 -0.32,0.36 l 0,0.88 0.12,0.08 z"
         id="path3355"
         inkscape:connector-curvature="0" />
    </g>
    <path
       style="fill:none;fill-rule:evenodd;stroke:#000000;stroke-width:1.00022697px;stroke-linecap:butt;stroke-linejoin:miter;stroke-opacity:1"
       d="m 0,1022.0621 148.914,0"
       id="path3359"
       inkscape:connector-curvature="0"
       sodipodi:nodetypes="cc" />
    <path
       style="fill:none;fill-rule:evenodd;stroke:#000000;stroke-width:1.00022697px;stroke-linecap:butt;stroke-linejoin:miter;stroke-opacity:1"
       d="m 0,1055.8621 148.914,0"
       id="path3359-8"
       inkscape:connector-curvature="0"
       sodipodi:nodetypes="cc" />
  </g>
</svg>
